<svg width="500" height="500" viewBox="0 0 500 500" fill="none" xmlns="http://www.w3.org/2000/svg">
<circle cx="250" cy="250" r="250" fill="#DBF7EB"/>
<path d="M332.333 283.333H319.167L314.5 278.833C331.398 259.234 340.685 234.212 340.667 208.333C340.667 186.907 334.313 165.962 322.409 148.147C310.505 130.331 293.586 116.446 273.791 108.246C253.995 100.047 232.213 97.9015 211.199 102.082C190.184 106.262 170.881 116.579 155.73 131.73C140.579 146.881 130.262 166.184 126.082 187.199C121.902 208.213 124.047 229.995 132.246 249.791C140.446 269.586 154.331 286.505 172.147 298.409C189.962 310.313 210.907 316.667 232.333 316.667C259.167 316.667 283.833 306.833 302.833 290.5L307.333 295.167V308.333L390.667 391.5L415.5 366.667L332.333 283.333ZM232.333 283.333C190.833 283.333 157.333 249.833 157.333 208.333C157.333 166.833 190.833 133.333 232.333 133.333C273.833 133.333 307.333 166.833 307.333 208.333C307.333 249.833 273.833 283.333 232.333 283.333Z" fill="#003686"/>
<path d="M285 198.679C285 229.929 238.665 255.223 236.692 256.268C236.172 256.548 235.591 256.694 235 256.694C234.409 256.694 233.828 256.548 233.308 256.268C231.335 255.223 185 229.929 185 198.679C185.008 191.34 187.927 184.305 193.116 179.116C198.305 173.927 205.34 171.008 212.679 171C221.897 171 229.969 174.964 235 181.665C240.031 174.964 248.103 171 257.321 171C264.66 171.008 271.695 173.927 276.884 179.116C282.073 184.305 284.992 191.34 285 198.679Z" fill="white"/>
<path d="M298 207.746H270.42C269.932 207.687 269.438 207.687 268.95 207.746H267.76C267.394 207.932 267.043 208.141 266.71 208.371C266.32 208.601 265.946 208.851 265.59 209.121C265.356 209.377 265.146 209.648 264.96 209.934C264.639 210.327 264.358 210.746 264.12 211.184L252.92 238.748L223.73 168.118C223.24 166.911 222.345 165.869 221.168 165.132C219.99 164.395 218.588 164 217.15 164C215.712 164 214.31 164.395 213.132 165.132C211.955 165.869 211.06 166.911 210.57 168.118L194.4 207.746H172C170.143 207.746 168.363 208.404 167.05 209.577C165.737 210.749 165 212.339 165 213.996C165 215.654 165.737 217.244 167.05 218.416C168.363 219.588 170.143 220.247 172 220.247H202.1C202.498 220.076 202.873 219.866 203.22 219.622C203.61 219.392 203.984 219.141 204.34 218.872L204.97 218.059C205.304 217.673 205.586 217.254 205.81 216.809L217.15 188.494L246.27 259.875C246.759 261.083 247.653 262.127 248.831 262.865C250.008 263.603 251.411 263.999 252.85 264C254.289 263.999 255.692 263.603 256.869 262.865C258.047 262.127 258.941 261.083 259.43 259.875L275.53 220.247H298C299.857 220.247 301.637 219.588 302.95 218.416C304.263 217.244 305 215.654 305 213.996C305 212.339 304.263 210.749 302.95 209.577C301.637 208.404 299.857 207.746 298 207.746Z" fill="#89D4AE"/>
<path d="M443.75 225.75H431.25V213.25C431.25 211.592 430.592 210.003 429.419 208.831C428.247 207.658 426.658 207 425 207C423.342 207 421.753 207.658 420.581 208.831C419.408 210.003 418.75 211.592 418.75 213.25L418.972 225.75H406.25C404.592 225.75 403.003 226.408 401.831 227.581C400.658 228.753 400 230.342 400 232C400 233.658 400.658 235.247 401.831 236.419C403.003 237.592 404.592 238.25 406.25 238.25L418.972 238.028L418.75 250.75C418.75 252.408 419.408 253.997 420.581 255.169C421.753 256.342 423.342 257 425 257C426.658 257 428.247 256.342 429.419 255.169C430.592 253.997 431.25 252.408 431.25 250.75V238.028L443.75 238.25C445.408 238.25 446.997 237.592 448.169 236.419C449.342 235.247 450 233.658 450 232C450 230.342 449.342 228.753 448.169 227.581C446.997 226.408 445.408 225.75 443.75 225.75Z" fill="#89D4AE"/>
<path d="M101.75 134.75H89.25V122.25C89.25 120.592 88.5915 119.003 87.4194 117.831C86.2473 116.658 84.6576 116 83 116C81.3424 116 79.7527 116.658 78.5806 117.831C77.4085 119.003 76.75 120.592 76.75 122.25L76.9719 134.75H64.25C62.5924 134.75 61.0027 135.408 59.8306 136.581C58.6585 137.753 58 139.342 58 141C58 142.658 58.6585 144.247 59.8306 145.419C61.0027 146.592 62.5924 147.25 64.25 147.25L76.9719 147.028L76.75 159.75C76.75 161.408 77.4085 162.997 78.5806 164.169C79.7527 165.342 81.3424 166 83 166C84.6576 166 86.2473 165.342 87.4194 164.169C88.5915 162.997 89.25 161.408 89.25 159.75V147.028L101.75 147.25C103.408 147.25 104.997 146.592 106.169 145.419C107.342 144.247 108 142.658 108 141C108 139.342 107.342 137.753 106.169 136.581C104.997 135.408 103.408 134.75 101.75 134.75Z" fill="#89D4AE"/>
<path d="M253.75 427.75H241.25V415.25C241.25 413.592 240.592 412.003 239.419 410.831C238.247 409.658 236.658 409 235 409C233.342 409 231.753 409.658 230.581 410.831C229.408 412.003 228.75 413.592 228.75 415.25L228.972 427.75H216.25C214.592 427.75 213.003 428.408 211.831 429.581C210.658 430.753 210 432.342 210 434C210 435.658 210.658 437.247 211.831 438.419C213.003 439.592 214.592 440.25 216.25 440.25L228.972 440.028L228.75 452.75C228.75 454.408 229.408 455.997 230.581 457.169C231.753 458.342 233.342 459 235 459C236.658 459 238.247 458.342 239.419 457.169C240.592 455.997 241.25 454.408 241.25 452.75V440.028L253.75 440.25C255.408 440.25 256.997 439.592 258.169 438.419C259.342 437.247 260 435.658 260 434C260 432.342 259.342 430.753 258.169 429.581C256.997 428.408 255.408 427.75 253.75 427.75Z" fill="#89D4AE"/>
</svg>
